<?xml version="1.0" encoding="UTF-8" standalone="no"?>
<svg width="366px" height="446px" viewBox="0 0 366 446" version="1.1" xmlns="http://www.w3.org/2000/svg" xmlns:xlink="http://www.w3.org/1999/xlink" xmlns:sketch="http://www.bohemiancoding.com/sketch/ns">
    <!-- Generator: Sketch 3.4.2 (15855) - http://www.bohemiancoding.com/sketch -->
    <title>logo</title>
    <desc>Created with Sketch.</desc>
    <defs></defs>
    <g id="Page-1" stroke="none" stroke-width="1" fill="none" fill-rule="evenodd" sketch:type="MSPage">
        <g id="Oval-1-+-Path-8-+-logo" sketch:type="MSLayerGroup" transform="translate(-73.000000, -33.000000)">
            <g id="logo" transform="translate(73.784461, 33.786802)" sketch:type="MSShapeGroup">
                <g id="Page-1">
                    <g>
                        <g id="logo">
                            <g id="Page-1">
                                <g id="logo">
                                    <g id="master-artboard">
                                        <g id="Group" stroke="#FFFFFF" fill="#005EB8">
                                            <g id="Shape">
                                                <path d="M26.7368552,144.423338 C12.1477026,144.423338 0.297737809,156.555142 0.297737809,171.491283 L0.297737809,171.491283 L0.297737809,217.518982 L0.297737809,239.161146 L0.297737809,285.188845 L0.297737809,285.188845 C0.297737809,300.124986 12.1477026,312.25679 26.7368552,312.25679 C41.3260078,312.25679 53.1759726,300.124986 53.1759726,285.188845 L53.1759726,285.188845 L53.1759726,239.161146 L53.1759726,217.518982 L53.1759726,171.491283 L53.1759726,171.491283 C53.1759726,156.555142 41.3260078,144.423338 26.7368552,144.423338 L26.7368552,144.423338 L26.7368552,144.423338 L26.7368552,144.423338 Z"></path>
                                                <path d="M364.252435,171.491283 C364.252435,156.555142 352.40247,144.423338 337.813318,144.423338 C323.224165,144.423338 311.3742,156.555142 311.3742,171.491283 L311.3742,171.491283 L311.3742,217.518982 L311.3742,239.161146 L311.3742,285.188845 L311.3742,285.188845 C311.3742,300.124986 323.224165,312.25679 337.813318,312.25679 C352.40247,312.25679 364.252435,300.124986 364.252435,285.188845 L364.252435,285.188845 L364.252435,239.161146 L364.252435,217.518982 L364.252435,171.491283 L364.252435,171.491283 L364.252435,171.491283 L364.252435,171.491283 L364.252435,171.491283 Z"></path>
                                                <path d="M63.2086828,149.941626 L62.6440349,149.178517 L62.6440349,327.619678 C62.6440349,342.494855 74.5535473,354.687623 89.0831523,354.687623 L111.35394,354.687623 L111.35394,370.843041 L111.35394,416.87074 L111.35394,416.87074 C111.35394,431.806881 123.203905,443.938685 137.793058,443.938685 C152.38221,443.938685 164.232175,431.806881 164.232175,416.87074 L164.232175,416.87074 L164.232175,370.843041 L164.232175,354.687623 L200.317998,354.687623 L200.317998,370.843041 L200.317998,416.87074 C200.317998,431.806881 212.167962,443.938685 226.757115,443.938685 C241.346268,443.938685 253.196232,431.806881 253.196232,416.87074 L253.196232,370.843041 L253.196232,354.687623 L275.46702,354.687623 C289.996626,354.687623 301.906138,342.494855 301.906138,327.619678 L301.906138,149.178517 L301.489305,149.178517 L63.2086828,149.941626 L63.2086828,149.941626 L63.2086828,149.941626 L63.2086828,149.941626 Z"></path>
                                                <path d="M301.667948,139.668158 L301.667948,126.621896 C301.310662,122.903102 300.774734,119.245272 300.060163,115.709369 C293.509932,83.9472081 271.894167,57.0621545 242.239481,41.4554114 L260.461035,7.01084164 C261.592439,4.87710723 260.81832,2.19469825 258.734156,1.03638529 C256.649991,-0.121927681 254.029898,0.670602244 252.898495,2.80433665 L234.43875,37.7366172 C218.718194,30.8477032 201.092116,26.9460174 182.513277,26.9460174 C163.755795,26.9460174 146.010621,30.908667 130.230517,37.8585448 L111.651678,2.80433665 C110.520275,0.670602244 107.900182,-0.121927681 105.816017,1.03638529 C103.731853,2.19469825 102.957734,4.87710723 104.089138,7.01084164 L122.429787,41.6383029 C94.1446951,56.6354077 73.2435009,81.8744376 65.8000557,111.807683 C63.8945337,119.550091 62.8822252,127.658282 62.8822252,135.949364 C62.8822252,137.168641 62.9417727,138.448881 62.9417727,139.668158 L301.667948,139.668158 L301.667948,139.668158 L301.667948,139.668158 L301.667948,139.668158 L301.667948,139.668158 Z M236.701558,73.4004637 C242.894504,73.4004637 247.956047,78.5214263 247.956047,84.9226296 C247.956047,91.262869 242.954052,96.4447954 236.701558,96.4447954 C230.508611,96.4447954 225.447069,91.3238328 225.447069,84.9226296 C225.447069,78.5214263 230.508611,73.4004637 236.701558,73.4004637 L236.701558,73.4004637 L236.701558,73.4004637 L236.701558,73.4004637 Z M127.848615,73.4004637 C134.041561,73.4004637 139.103104,78.5214263 139.103104,84.9226296 C139.103104,91.262869 134.101109,96.4447954 127.848615,96.4447954 C121.655669,96.4447954 116.594126,91.3238328 116.594126,84.9226296 C116.594126,78.5214263 121.655669,73.4004637 127.848615,73.4004637 L127.848615,73.4004637 L127.848615,73.4004637 L127.848615,73.4004637 Z"></path>
                                            </g>
                                        </g>
                                        <g id="Group" transform="translate(182.765056, 239.826729) rotate(269.782400) translate(-182.765056, -239.826729) translate(92.940494, 116.374952)" fill="#FCFAFE">
                                            <g id="Shape" transform="translate(0.000575, 0.005039)">
                                                <path d="M13.2325146,0.195842534 C17.0581473,0.195842534 29.5330367,0.420581997 29.7724361,0.420582074 C29.7724361,0.420582074 76.7158747,74.3334361 88.4844421,94.5238333 C109.045055,64.5110811 126.756244,30.9513673 147.37096,0.665771938 L178.454618,0.665771938 C153.611219,41.319409 128.766342,81.4273598 103.669247,121.262467 C129.10429,161.370417 153.340843,205.256905 178.016639,245.637699 C168.952594,245.092012 147.70585,245.637706 147.70585,245.637706 C147.70585,245.637706 101.348983,169.010028 89.4743709,148.001101 C67.471386,178.55954 50.3395597,214.029155 29.1656396,245.13328 L-2.77111667e-12,245.13328 C23.9292138,203.933957 47.6160945,162.461791 73.0501988,122.35384 C48.9557014,81.7002029 73.0501976,122.683705 -2.77111667e-12,0.995640426 C1.75449773,0.391237178 9.40688196,0.195842534 13.2325146,0.195842534 L13.2325146,0.195842534 Z"></path>
                                            </g>
                                        </g>
                                    </g>
                                </g>
                            </g>
                        </g>
                    </g>
                </g>
            </g>
        </g>
    </g>
</svg>